<svg version="1.1" id="as-appsumo-logo" xmlns:x="ns_extend;" xmlns:i="ns_ai;" xmlns:graph="ns_graphs;" xmlns="http://www.w3.org/2000/svg" xmlns:xlink="http://www.w3.org/1999/xlink" x="0px" y="0px" viewBox="0 0 362.1 56" style="enable-background:new 0 0 362.1 56;" xml:space="preserve">
 <style type="text/css">
  .st0{fill:#FFFFFF;}
 </style>
 <metadata>
  <sfw xmlns="ns_sfw;">
   <slices>
   </slices>
   <sliceSourceBounds bottomLeftOrigin="true" height="56" width="362.1" x="-212.1" y="0">
   </sliceSourceBounds>
  </sfw>
 </metadata>
 <g>
  <path id="Path_1007" class="st0" d="M228.6,34.3c0,9.4-4.3,9.4-6.5,9.4c-2.2,0-6.5,0-6.5-9.4V7.7h-11.1V36
		c0,10.9,7.2,18.6,17.6,18.6c10.4,0,17.6-7.7,17.6-18.6V7.7h-11.1V34.3z">
  </path>
  <path id="Path_1008" class="st0" d="M337.4,6.3c-13.5,0-24.6,10.9-24.6,24.6c0,13.5,11.1,24.6,24.6,24.6
		c13.5,0,24.6-11.1,24.6-24.6S351,6.3,337.4,6.3z M337.4,44.2c-7.5,0-13.3-6-13.3-13.5c0-7.2,5.8-13.3,13-13.5
		c7.2,0,13.3,5.8,13.5,13v0.2C350.7,38.1,344.7,44.2,337.4,44.2z">
  </path>
  <path id="Path_1009" class="st0" d="M24.9,0L0,54.1h12.6l4.8-10.4h15l4.8,10.4h12.6L24.9,0z M20,34.5l4.6-11.3l4.6,11.3H20z">
  </path>
  <path id="Path_1010" class="st0" d="M78.4,8H60.3v45.6h11.3v-13h6c11.1,0,18.1-6.3,18.1-16.4v-0.2C96.1,14,89.3,8,78.4,8z
		 M84.5,24.6c0,3.9-2.7,6.3-7,6.3h-5.8V18.3h5.8C82.1,18.1,84.5,20.5,84.5,24.6L84.5,24.6z">
  </path>
  <path id="Path_1011" class="st0" d="M125.3,8h-18.1v45.6h11.3v-13h6c11.1,0,18.1-6.3,18.1-16.4v-0.2C142.9,14,136.1,8,125.3,8z
		 M131.3,24.6c0,3.9-2.7,6.3-7,6.3h-5.8V18.3h5.8C128.9,18.1,131.3,20.5,131.3,24.6L131.3,24.6z">
  </path>
  <path id="Path_1012" class="st0" d="M176.4,22.4c-8.9-2.4-10.9-3.4-10.9-6.5v-0.2c0-2.4,2.4-4.1,6.3-4.1c4.8,0.2,9.4,1.9,13.3,5.1
		l0.2,0.2l6.3-9.2l-0.2-0.2c-5.6-4.3-12.6-6.8-19.6-6.8c-10.9,0-18.6,6.5-18.6,15.9v0.2c0,10.9,7.5,13.8,17.6,16.2
		c8.7,2.2,10.1,3.6,10.1,6.3v0.2c0,2.9-2.7,4.6-7,4.6c-5.6-0.2-11.1-2.4-15.2-6.3l-0.2-0.2l-7.2,8.7l0.2,0.2c6,5.6,14,8.4,22.2,8.4
		c12.1,0,19.6-6.3,19.6-16.4v-0.2C193.3,28.7,186.6,24.9,176.4,22.4z">
  </path>
  <path id="Path_1013" class="st0" d="M277.1,56l-13.8-23.2l-4.1,21.5h-9.9l10.1-48l17.9,30.2l16.9-30.2l10.1,48h-10.6l-3.9-21.2
		L277.1,56z">
  </path>
 </g>
</svg>