<?xml version="1.0" encoding="UTF-8" standalone="no"?>
<svg
   xml:space="preserve"
   height="96.481361"
   viewBox="0 0 134.39393 96.458382"
   width="134.75749"
   version="1.1"
   id="svg19"
   sodipodi:docname="NFL wordmark logo.svg"
   inkscape:version="1.3.2 (1:1.3.2+202311252150+091e20ef0f)"
   xmlns:inkscape="http://www.inkscape.org/namespaces/inkscape"
   xmlns:sodipodi="http://sodipodi.sourceforge.net/DTD/sodipodi-0.dtd"
   xmlns="http://www.w3.org/2000/svg"
   xmlns:svg="http://www.w3.org/2000/svg"><sodipodi:namedview
     id="namedview19"
     pagecolor="#ffffff"
     bordercolor="#000000"
     borderopacity="0.25"
     inkscape:showpageshadow="2"
     inkscape:pageopacity="0.0"
     inkscape:pagecheckerboard="0"
     inkscape:deskcolor="#d1d1d1"
     inkscape:zoom="3.402439"
     inkscape:cx="67.451613"
     inkscape:cy="11.168459"
     inkscape:window-width="2560"
     inkscape:window-height="1376"
     inkscape:window-x="1920"
     inkscape:window-y="27"
     inkscape:window-maximized="1"
     inkscape:current-layer="svg19" /><defs
     id="defs1" /><path
     d="m 32.397676,48.44503 -0.0054,-36.3361 -4.565305,-2.56216 V 0.10559 h 20.838911 v 9.44118 l -4.34791,2.56216 V 86.33396 L 33.199745,83.01092 17.112478,35.49447 l -0.0031,31.36707 5.124322,3.91312 v 9.65857 L -0.09592272,74.74989 V 66.51992 L 5.0283993,64.51988 V 12.03439 L -0.22014872,9.44118 V 0 H 16.674609 l 15.776702,48.44814"
     id="path5"
     style="fill:#d50a0a;stroke-width:0.310565" /><path
     d="m 70.907736,81.67549 4.472136,5.34172 v 9.44117 L 53.236587,88.19736 v -8.01258 l 4.875871,-2.00004 V 12.03439 L 53.267644,9.57783 V 0.01242 H 91.777701 V 19.2364 h -8.44736 l -2.55906,-7.88835 H 70.988483 V 33.5845 h 7.329338 l 2.88825,-4.22368 h 5.90074 v 19.78299 h -5.90074 l -2.77956,-4.00629 h -7.453556 v 36.64667"
     id="path6"
     style="fill:#d50a0a;stroke-width:0.310565" /><path
     d="m 95.442371,85.09171 v -9.44118 l 5.496999,-4.50319 V 12.13999 L 96.249841,9.68342 v -9.5654 h 22.143279 v 9.5654 l -4.34791,2.45657 v 55.59113 l 9.53435,-2.57458 1.82612,-14.53444 h 9.09956 V 74.90828 L 95.374051,85.34326"
     id="path7"
     style="fill:#d50a0a;stroke-width:0.310565" /></svg>
